<svg xmlns="http://www.w3.org/2000/svg" viewBox="0 0 48 72">
    <path d="M17 5h14v8l5 5c2 2 3 5 3 8v35c0 4-3 7-7 7H16c-4 0-7-3-7-7V26c0-3 1-6 3-8l5-5z"
        fill="#71d3f2" stroke="#247b9b" stroke-width="3" stroke-linejoin="round"/>
    <path d="M17 5h14v8H17z" fill="#f6cf54" stroke="#247b9b" stroke-width="3" stroke-linejoin="round"/>
    <path d="M10 31h28v22H10z" fill="#fff" stroke="#247b9b" stroke-width="2"/>
    <path d="M17 44c2-4 4-5 7-5s5 1 7 5c-2 4-5 6-7 6s-5-2-7-6z"
        fill="#55bddc"/>
    <path d="M15 22c-2 3-2 7-2 12m4-13c-1 3-1 5-1 8"
        fill="none" stroke="#d8f8ff" stroke-width="3" stroke-linecap="round"/>
</svg>
